<?xml version="1.0" encoding="UTF-8"?>
<svg id="Layer_2" data-name="Layer 2" xmlns="http://www.w3.org/2000/svg" version="1.1" viewBox="0 0 50 50">
  <defs>
    <style>
      .cls-1 {
        fill: #000;
      }

      .cls-1, .cls-2 {
        stroke-width: 0px;
      }

      .cls-2 {
        fill: #fefefd;
      }
    </style>
  </defs>
  <path class="cls-2" d="M16.61,45.95s0,.03,0,.05c-4.13,0-8.27,0-12.4,0-.17,0-.21-.03-.21-.21,0-4.13,0-8.27,0-12.4.02,0,.03,0,.05,0,0,4.11,0,8.23,0,12.34,0,.18.05.22.22.22,4.11,0,8.23,0,12.34,0Z"/>
  <path class="cls-1" d="M33.95,45.96c-1.9-.08-3.73-.45-5.47-1.23-3.15-1.41-5.44-3.64-6.58-6.96-.44-1.27-.66-2.58-.71-3.92-.02-.41-.01-.41.41-.41,2.31,0,4.62,0,6.93,0,.2,0,.26.05.29.25.14.99.46,1.92,1.03,2.76.78,1.13,1.86,1.72,3.24,1.72,1.65,0,3.31,0,4.96,0,.19,0,.24-.05.24-.24,0-1.41,0-2.82,0-4.23-.02-2.28-1.59-4.27-3.76-4.77-.35-.08-.7-.1-1.05-.1-5.57,0-11.14,0-16.71,0-6.03,0-11.24-4.18-12.54-10.05-.11-.48-.16-.98-.19-1.47,0-.11,0-.22,0-.33,0-4.2,0-8.4,0-12.6,0-.22.05-.29.28-.29,3.81,0,7.63-.03,11.44.02,3.51.04,6.66,1.15,9.29,3.54,1.95,1.78,3.05,4.03,3.5,6.62.12.7.19,1.41.22,2.13,0,.16-.02.22-.2.22-2.4,0-4.8,0-7.21,0-.17,0-.2-.06-.23-.21-.17-1.15-.55-2.23-1.3-3.14-.76-.91-1.74-1.37-2.93-1.38-1.67,0-3.34,0-5.01,0-.17,0-.23.03-.23.22,0,1.43,0,2.86,0,4.28.03,2.38,1.72,4.38,4.04,4.79.26.05.53.06.8.06,5.44,0,10.89.02,16.33,0,3.5-.02,6.56,1.09,9.13,3.47,2.11,1.96,3.41,4.38,3.86,7.23.05.34.07.68.07,1.03,0,4.24,0,8.48,0,12.73,0,.24-.07.29-.29.29-3.8,0-7.59,0-11.39,0-.09,0-.18,0-.28,0Z"/>
  <path class="cls-1" d="M45.9,10.39c0,2.01,0,4.01,0,6.02,0,.19-.04.26-.25.25-2.13,0-4.27,0-6.4,0-.19,0-.23-.06-.23-.24,0-1.73,0-3.46,0-5.19,0-.23-.07-.28-.28-.27-1.72,0-3.44,0-5.16.01-.21,0-.26-.06-.26-.27,0-2.12,0-4.23,0-6.35,0-.21.05-.27.26-.27,4.01,0,8.03,0,12.04,0,.23,0,.27.07.27.28,0,2.01,0,4.01,0,6.02Z"/>
  <path class="cls-1" d="M16.61,45.95c-4.11,0-8.23,0-12.34,0-.18,0-.22-.05-.22-.22,0-4.11,0-8.23,0-12.34,2.22,0,4.45,0,6.67-.01.22,0,.19.11.19.25,0,1.72,0,3.44,0,5.16,0,.23.06.29.29.29,1.72-.01,3.44,0,5.16,0,.14,0,.25-.02.25.19,0,2.22,0,4.45-.01,6.67Z"/>
</svg>